<?xml version="1.0" standalone="no"?>
<!DOCTYPE svg PUBLIC "-//W3C//DTD SVG 20010904//EN"
 "http://www.w3.org/TR/2001/REC-SVG-20010904/DTD/svg10.dtd">
<svg version="1.0" xmlns="http://www.w3.org/2000/svg"
 width="400.000000pt" height="400.000000pt" viewBox="0 0 400.000000 400.000000"
 preserveAspectRatio="xMidYMid meet">
<metadata>
Created by potrace 1.14, written by Peter Selinger 2001-2017
</metadata>
<g transform="translate(0.000000,400.000000) scale(0.100000,-0.100000)"
fill="#000000" stroke="none">
<path d="M388 3993 c6 -2 12 -14 12 -26 0 -27 16 -54 26 -44 11 10 -23 77 -38
76 -10 0 -10 -2 0 -6z"/>
<path d="M3969 3991 c10 -6 10 -10 1 -16 -9 -6 -9 -10 1 -16 11 -7 10 -9 -3
-9 -10 0 -18 -8 -18 -17 0 -16 2 -15 19 2 10 11 22 30 26 43 5 18 3 22 -17 22
-17 0 -19 -3 -9 -9z"/>
<path d="M2050 3982 c0 -4 -21 -6 -48 -4 -38 3 -52 -1 -75 -20 -15 -13 -27
-29 -27 -36 0 -7 -4 -10 -10 -7 -5 3 -10 1 -10 -5 0 -6 -4 -9 -9 -5 -5 3 -12
1 -16 -5 -4 -6 -11 -7 -17 -4 -7 4 -1 14 13 25 13 10 18 19 11 19 -16 0 -89
-76 -97 -101 -4 -10 -11 -19 -16 -19 -5 0 -9 -8 -9 -19 0 -20 -29 -24 -42 -6
-4 6 -8 1 -8 -10 0 -17 -2 -17 -10 -5 -6 10 -10 11 -10 3 0 -9 -16 -13 -47
-13 -27 0 -67 -9 -90 -20 -45 -20 -59 -42 -20 -32 20 5 21 4 8 -11 -7 -9 -19
-17 -27 -17 -19 0 -84 -70 -84 -92 0 -13 -7 -18 -25 -18 -17 0 -25 -6 -26 -17
0 -11 -3 -13 -6 -5 -8 21 -25 13 -21 -11 1 -12 -5 -33 -15 -47 -9 -13 -17 -19
-17 -13 0 7 5 15 10 18 12 8 13 25 2 25 -16 0 -30 -47 -27 -91 3 -53 -8 -72
-55 -91 -19 -8 -53 -37 -75 -63 -22 -27 -33 -45 -26 -40 11 6 13 4 7 -11 -5
-10 -12 -46 -16 -80 -4 -34 -14 -72 -23 -85 -16 -26 -47 -117 -65 -192 -7 -26
-12 -96 -12 -155 0 -107 0 -109 -30 -137 -16 -16 -30 -33 -30 -38 0 -6 -7 -15
-16 -22 -10 -7 -17 -27 -18 -52 -1 -38 2 -44 64 -119 5 -7 7 -14 4 -17 -3 -3
0 -14 7 -25 10 -16 9 -33 -8 -93 -34 -120 -31 -157 20 -257 25 -48 50 -113 57
-145 6 -32 20 -66 31 -76 25 -23 36 -110 20 -166 -7 -26 -7 -41 0 -45 6 -5 6
-16 -1 -34 -13 -36 -13 -36 6 -29 14 5 16 2 11 -20 -4 -14 -3 -27 3 -29 6 -2
5 -20 -1 -48 -12 -53 5 -140 27 -140 8 0 14 -7 14 -16 0 -11 6 -14 20 -9 11 3
20 2 20 -4 0 -5 12 -23 26 -40 14 -17 23 -35 20 -40 -3 -5 1 -11 9 -15 26 -10
17 -42 -56 -185 -57 -112 -76 -141 -96 -146 -14 -3 -33 -13 -41 -22 -15 -14
-14 -15 8 -8 14 4 30 12 37 17 8 6 6 -8 -4 -44 -39 -134 -116 -283 -161 -311
-7 -5 -10 -12 -7 -17 3 -5 -2 -21 -11 -35 -24 -37 -13 -91 31 -160 20 -32 39
-73 42 -90 5 -29 1 -35 -41 -65 -51 -37 -57 -45 -25 -35 32 10 109 65 109 77
0 39 -66 162 -97 181 -19 12 -16 30 8 45 14 9 19 20 16 33 -3 10 -1 19 4 19 5
0 9 6 9 13 0 18 38 52 47 44 4 -4 -2 -14 -13 -22 -19 -15 -19 -15 1 -13 26 4
36 14 79 81 40 63 42 67 22 67 -8 0 -16 -10 -20 -23 -6 -26 -52 -84 -60 -76
-3 3 1 18 9 33 8 16 15 37 15 47 0 10 5 21 10 24 5 3 10 13 10 21 0 8 9 23 20
34 11 11 20 27 20 35 0 8 4 15 10 15 5 0 10 3 9 7 -2 17 14 52 26 57 7 2 21
25 30 50 10 25 21 46 26 46 4 0 16 27 25 60 9 34 25 65 34 70 16 8 17 6 10
-23 -4 -18 -12 -41 -18 -52 -5 -11 -18 -41 -27 -67 -9 -25 -27 -58 -41 -73
-14 -16 -28 -43 -31 -62 -4 -23 -10 -32 -19 -29 -8 3 -14 -1 -14 -11 0 -9 -7
-25 -17 -35 -10 -11 -12 -18 -4 -18 15 0 60 51 61 68 0 7 13 26 30 42 16 16
30 34 30 40 0 5 4 10 10 10 5 0 12 16 16 35 3 19 10 37 14 40 5 3 16 28 25 55
14 43 19 48 34 38 16 -10 17 -14 4 -39 -8 -16 -19 -31 -24 -34 -5 -4 -7 -11
-4 -16 4 -5 0 -9 -7 -9 -7 0 -14 -12 -15 -26 -1 -29 -33 -94 -45 -94 -5 0 -8
-7 -8 -15 0 -8 -4 -15 -9 -15 -5 0 -16 -12 -26 -26 -15 -24 -15 -27 -1 -43 15
-16 15 -20 -4 -44 -11 -14 -20 -30 -20 -36 0 -14 44 -25 71 -18 17 5 18 3 8
-9 -7 -9 -20 -13 -30 -11 -17 5 -26 -7 -106 -123 -9 -14 -25 -34 -34 -45 -15
-18 -16 -22 -3 -39 8 -11 14 -28 14 -38 0 -24 38 -24 56 0 18 23 17 31 -3 31
-31 -1 -54 7 -52 17 2 21 34 64 49 65 33 1 53 8 72 26 20 18 21 18 10 -2 -5
-11 -20 -29 -31 -39 -12 -11 -21 -31 -21 -45 0 -25 2 -24 39 19 21 25 49 65
61 90 12 25 35 71 52 103 25 48 28 62 20 85 -6 15 -11 21 -11 14 -1 -15 -41
-60 -42 -46 0 5 -5 -2 -10 -15 -8 -19 -12 -22 -22 -12 -9 10 -7 16 11 31 12
10 22 23 22 29 0 6 6 11 14 11 8 0 18 9 21 20 3 11 10 20 15 20 5 0 11 8 14
18 3 9 3 -1 0 -23 l-4 -40 20 40 c21 43 27 35 9 -12 -6 -15 -12 -43 -14 -61
-2 -18 -7 -38 -13 -45 -5 -7 -10 -29 -10 -50 -1 -21 -7 -57 -13 -80 -6 -23
-13 -51 -14 -62 -6 -42 -37 -135 -45 -135 -9 0 -27 -95 -22 -113 1 -4 -3 -7
-8 -7 -6 0 -10 -9 -10 -21 0 -19 5 -20 61 -17 l60 3 -5 30 c-20 113 -19 130
23 297 22 90 45 178 51 193 6 16 11 75 11 131 0 57 4 106 8 109 5 2 31 0 57
-6 27 -5 60 -12 74 -14 13 -2 39 -20 57 -40 18 -21 33 -31 33 -24 0 8 -12 25
-25 38 -26 24 -31 36 -17 45 5 3 15 -6 22 -20 8 -13 20 -22 27 -20 7 3 15 1
18 -4 3 -5 12 -7 20 -4 8 4 13 10 10 14 -11 18 26 17 48 -1 35 -27 77 -26 77
2 0 18 2 19 15 9 8 -7 15 -19 15 -26 0 -19 3 -18 57 18 26 18 62 40 78 48 24
12 31 23 36 58 3 25 14 50 27 62 12 12 22 27 22 34 0 10 10 12 41 6 32 -6 42
-4 47 8 12 34 73 86 100 88 21 1 27 6 25 23 -2 12 3 21 10 21 8 0 20 12 27 28
8 15 29 46 47 69 18 23 33 48 33 57 0 8 9 17 20 21 11 3 19 12 17 18 -1 7 8
12 21 11 16 0 22 5 22 21 0 30 28 51 68 50 35 -1 40 6 17 25 -23 19 -8 29 25
17 23 -9 32 -8 47 5 10 8 23 14 29 11 6 -2 17 8 24 22 12 22 12 28 1 34 -10 6
-10 10 -1 16 6 4 17 -1 24 -11 9 -12 15 -14 20 -6 4 7 2 12 -3 12 -6 0 -11 7
-11 16 0 14 3 14 15 4 11 -9 19 -10 26 -3 8 8 5 14 -10 22 -24 13 -28 31 -6
31 8 0 15 -4 15 -10 0 -5 8 -10 18 -10 13 0 10 6 -13 25 -28 23 -29 24 -7 25
25 0 30 18 7 26 -10 4 -12 11 -7 18 5 6 12 21 14 33 4 16 2 20 -8 16 -10 -4
-14 3 -14 22 0 17 -5 25 -12 23 -14 -5 -38 15 -38 31 0 6 12 30 26 53 30 47
46 95 34 103 -4 2 -7 34 -5 70 1 35 -2 62 -6 59 -5 -3 -9 13 -9 35 0 23 -5 41
-11 41 -5 0 -8 -4 -4 -9 3 -5 1 -12 -4 -16 -6 -3 -7 -13 -4 -22 4 -11 3 -14
-5 -9 -8 4 -10 2 -6 -8 3 -8 -4 -31 -14 -53 -17 -31 -22 -35 -27 -20 -9 21
-25 23 -25 3 0 -8 -10 -18 -22 -22 -13 -4 -26 -12 -30 -18 -6 -8 -8 -7 -8 2 0
6 -4 12 -9 12 -4 0 -8 -8 -8 -17 0 -40 -3 -43 -23 -23 -25 25 -40 25 -40 0 0
-14 -5 -18 -16 -13 -13 5 -15 2 -9 -15 5 -19 2 -22 -20 -22 -14 0 -24 -4 -20
-9 3 -5 1 -12 -4 -15 -5 -3 -11 1 -15 9 -3 8 -10 15 -15 15 -6 0 -8 -6 -5 -14
7 -18 -15 -31 -29 -17 -6 6 -14 11 -18 11 -11 0 2 -43 18 -62 8 -9 12 -22 8
-29 -6 -8 -13 -2 -24 17 -12 23 -16 25 -19 12 -3 -14 -7 -16 -22 -8 -15 8 -21
6 -29 -7 -9 -17 -10 -17 -28 0 -26 23 -36 11 -17 -19 20 -30 8 -54 -13 -25 -8
12 -19 18 -25 15 -7 -4 -6 -9 1 -14 16 -9 24 -57 11 -65 -5 -3 -10 3 -10 15 0
13 -5 20 -12 17 -8 -2 -12 -17 -10 -36 3 -36 -1 -38 -30 -11 -26 24 -40 26
-31 3 5 -13 2 -15 -11 -10 -14 6 -16 3 -11 -13 4 -11 2 -20 -4 -20 -14 0 -14
-37 -1 -45 6 -3 10 -12 9 -18 0 -9 -2 -9 -6 1 -2 6 -10 12 -16 12 -6 0 -18 7
-28 16 -16 14 -17 13 -14 -23 2 -35 22 -93 45 -135 8 -13 4 -18 -20 -23 -17
-4 -30 -13 -30 -21 0 -27 -18 -14 -26 18 -6 28 -8 30 -14 13 -6 -18 -8 -17
-25 8 -14 21 -20 25 -27 15 -6 -11 -10 -10 -17 1 -7 11 -10 10 -14 -5 -3 -14
-6 -11 -12 13 -4 17 -13 34 -21 37 -8 3 -11 12 -7 22 4 11 3 15 -4 11 -7 -4
-14 5 -18 23 -6 27 -20 36 -48 31 -4 -1 -10 6 -13 14 -5 13 -9 13 -22 3 -13
-11 -14 -10 -8 10 6 19 4 22 -15 20 -14 -2 -23 3 -24 15 -2 9 1 17 7 17 5 0
-4 13 -20 30 -34 34 -42 37 -42 15 0 -8 -6 -16 -12 -16 -13 -1 -22 -3 -43 -9
-25 -6 -71 3 -85 17 -13 14 -13 15 5 8 27 -11 54 -8 71 6 16 13 19 29 4 29 -5
0 -10 -8 -10 -17 0 -15 -2 -16 -10 -3 -8 13 -11 13 -19 1 -10 -16 -41 -8 -41
10 0 9 4 9 14 0 17 -14 29 0 20 22 -5 14 -23 23 -64 33 -46 11 -140 -44 -140
-82 0 -13 4 -12 30 1 17 9 30 21 30 28 0 8 3 7 9 -3 6 -8 7 -18 4 -23 -9 -16
-95 -50 -102 -41 -3 5 -14 9 -23 10 -49 2 -61 5 -55 11 4 4 -5 19 -20 35 -14
15 -23 31 -19 35 4 4 11 1 15 -6 12 -19 25 22 16 49 -4 11 -2 20 4 20 6 0 11
9 11 19 0 11 4 22 9 25 5 3 7 16 4 29 -4 17 -2 19 5 8 10 -14 12 -7 26 91 1
10 11 25 22 33 12 10 14 14 5 13 -8 -2 -17 6 -19 17 -4 17 -3 18 13 5 16 -14
17 -13 11 8 -4 12 -3 22 2 22 6 0 12 6 15 14 4 10 -1 13 -16 10 -12 -2 -16 -2
-10 2 8 3 11 15 7 29 -3 12 -1 26 5 30 6 3 8 11 5 17 -5 7 2 9 20 6 20 -4 29
0 38 16 10 19 10 20 -6 7 -14 -12 -16 -12 -10 3 3 9 1 16 -5 16 -6 0 -11 -4
-11 -10 0 -5 -5 -10 -10 -10 -6 0 -3 14 6 31 26 51 35 127 19 164 -8 18 -7 18
8 7 9 -8 20 -11 26 -8 5 3 23 -2 40 -11 37 -22 68 -8 63 27 -2 19 2 21 21 16
16 -4 28 1 40 14 9 11 24 20 34 20 15 0 15 1 -2 14 -16 12 -13 12 29 6 26 -4
58 -6 72 -4 39 4 29 -23 -22 -59 -26 -18 -40 -33 -32 -36 7 -2 18 -8 24 -13
11 -8 20 -2 106 75 31 26 48 34 48 21 0 -4 -10 -15 -22 -26 -13 -11 -43 -38
-67 -61 -25 -23 -42 -36 -37 -29 8 14 -3 16 -22 4 -7 -5 -10 -16 -7 -25 5 -11
0 -16 -17 -19 -18 -2 -22 -8 -20 -28 2 -14 4 -37 6 -53 3 -31 16 -49 16 -22 0
13 3 15 13 6 8 -6 17 -8 21 -4 4 4 4 0 0 -10 -3 -10 -1 -17 6 -17 6 0 8 -5 4
-12 -4 -7 -3 -8 4 -4 21 13 13 45 -18 72 -30 28 -31 44 -2 44 13 0 14 -2 4 -9
-11 -7 -11 -9 2 -14 9 -4 16 -1 16 6 0 7 5 4 11 -5 5 -10 14 -18 20 -18 9 0
21 -8 55 -38 8 -8 22 -11 31 -8 12 5 4 16 -37 46 -69 51 -70 53 -35 44 17 -4
32 -11 33 -16 5 -11 32 -10 32 2 0 6 -4 10 -10 10 -5 0 -10 5 -10 11 0 7 7 8
18 4 9 -4 28 -9 42 -11 18 -3 13 1 -15 15 l-40 19 52 -2 c28 -1 55 -5 60 -10
5 -5 0 -6 -10 -3 -11 4 -16 3 -12 -3 16 -26 131 -4 167 32 22 22 38 23 38 3 0
-8 5 -15 11 -15 5 0 7 -4 4 -10 -3 -5 -1 -10 4 -10 6 0 11 5 11 10 0 16 15 12
40 -10 13 -11 26 -21 29 -21 3 -1 20 -3 36 -5 27 -3 28 -2 10 9 -42 24 -63 49
-57 69 2 10 1 18 -4 17 -21 -4 -32 4 -87 55 -32 30 -66 58 -77 61 -11 3 -19
11 -17 18 1 6 -8 13 -21 15 -12 2 -20 8 -17 13 4 5 1 9 -6 9 -10 0 -10 3 -1
12 10 10 15 10 23 -2 7 -11 8 -7 5 14 -4 22 -2 26 6 18 18 -18 24 -15 23 13
-2 26 -15 49 -15 25 0 -9 -5 -8 -19 4 -19 17 -19 17 -14 -5 5 -18 3 -21 -11
-16 -10 4 -20 7 -22 7 -2 0 -4 9 -4 20 0 11 -4 20 -10 20 -5 0 -10 -9 -10 -21
0 -14 -5 -19 -14 -16 -8 3 -28 -7 -44 -22 -23 -22 -36 -28 -58 -23 -16 3 -32
10 -36 16 -4 6 -10 7 -14 3 -4 -4 1 -14 12 -22 19 -14 19 -14 -1 -15 -17 0
-16 -2 6 -14 14 -7 40 -11 57 -8 20 2 32 0 32 -7 0 -19 -86 -13 -124 10 -20
12 -36 26 -36 31 0 6 6 6 15 -2 12 -10 14 -8 10 9 -2 12 0 21 4 21 5 0 11 14
15 31 3 17 15 43 26 59 11 15 20 32 20 36 0 4 -16 -14 -35 -41 -19 -28 -43
-49 -54 -50 -11 -1 -18 2 -16 6 7 10 -5 39 -15 39 -5 0 -6 -8 -3 -18 2 -10 -3
-25 -13 -33 -16 -13 -16 -12 -6 8 9 16 9 24 1 29 -6 3 -9 23 -7 44 2 21 0 36
-4 34 -5 -3 -8 2 -8 11 0 12 -5 15 -22 9 -19 -6 -21 -5 -11 8 7 8 10 18 6 21
-8 8 -53 -43 -53 -60 0 -7 -5 -13 -10 -13 -6 0 -8 -10 -4 -24 3 -14 0 -29 -10
-39 -18 -17 -21 -32 -6 -22 6 4 10 -9 10 -32 1 -21 7 -49 15 -63 16 -28 19
-41 8 -39 -20 3 -23 -3 -13 -21 11 -21 4 -25 -24 -14 -9 3 -16 13 -16 22 0 13
-3 12 -15 -4 -14 -19 -14 -19 -16 1 0 11 -1 40 -1 65 l0 45 -6 -39 c-11 -64
-32 -57 -28 8 4 56 -1 65 -21 45 -7 -7 -8 -21 -3 -40 5 -16 6 -46 3 -67 l-6
-37 -14 60 c-11 46 -11 66 -2 88 6 15 9 30 6 33 -3 3 -13 -15 -22 -40 -12 -32
-15 -50 -7 -58 5 -7 13 -28 17 -45 5 -26 3 -33 -8 -33 -8 0 -18 12 -21 26 -6
24 -19 26 -22 3 -1 -5 -2 -12 -3 -16 0 -4 -8 2 -16 13 -10 13 -14 14 -15 5 0
-20 -29 6 -43 39 -8 19 -11 21 -14 9 -2 -10 -13 -19 -24 -22 -14 -4 -21 1 -25
19 -3 13 -12 24 -20 24 -18 0 -18 18 0 36 19 18 27 18 20 -1 -4 -8 -3 -23 1
-32 6 -15 9 -13 21 12 17 40 17 63 -1 81 -8 8 -12 22 -9 32 5 16 5 16 -8 0 -7
-9 -19 -25 -25 -35 -11 -15 -11 -13 -3 10 10 28 13 103 3 80 -7 -18 -23 -16
-23 3 0 9 -5 12 -11 8 -7 -4 -10 -1 -7 7 3 8 11 13 18 11 8 -2 10 3 7 13 -4 9
-1 15 8 15 9 0 15 -9 15 -22 0 -16 3 -19 11 -11 15 15 4 145 -18 203 -7 17 -7
80 0 86 2 3 12 -29 22 -70 19 -82 28 -100 43 -95 7 3 4 23 -8 59 -10 30 -15
56 -9 58 5 2 9 10 9 17 0 8 10 21 22 29 12 9 17 16 10 16 -6 0 -12 6 -12 14 0
8 -4 16 -10 18 -5 2 -7 13 -4 25 4 13 10 20 15 17 5 -3 9 7 10 23 l1 28 13
-30 c8 -16 15 -25 16 -20 1 6 5 -3 8 -20 4 -16 3 -36 -2 -42 -6 -9 -6 -13 2
-13 6 0 8 -11 5 -30 -4 -18 -2 -30 4 -30 14 0 19 37 11 78 -8 36 -2 72 12 72
5 0 9 -5 9 -11 0 -5 5 -7 10 -4 17 10 11 25 -10 25 -24 0 -26 26 -5 66 13 26
15 27 15 7 0 -12 5 -25 10 -28 6 -4 10 -3 9 2 -3 19 2 43 9 43 5 0 8 -10 6
-22 -1 -13 -3 -27 -3 -31 -1 -5 -10 -5 -21 -2 -15 5 -20 2 -20 -10 0 -12 6
-16 20 -12 11 3 23 1 26 -4 3 -5 10 -9 16 -9 7 0 9 22 5 66 -3 38 -1 62 4 57
5 -5 10 -21 11 -36 1 -15 8 -27 16 -27 7 0 10 -5 6 -12 -4 -6 -3 -8 3 -5 6 4
24 0 39 -8 33 -17 44 -19 44 -6 0 5 -11 12 -25 15 -14 4 -25 13 -25 20 0 8 -6
16 -12 19 -7 2 -9 8 -5 13 4 5 11 4 15 -1 11 -15 72 -35 88 -28 34 13 2 36
-37 26 -16 -5 -20 -3 -14 6 4 7 18 11 31 8 14 -2 27 -1 29 4 8 12 -25 27 -46
22 -11 -3 -19 0 -19 6 0 7 5 9 10 6 17 -10 32 5 20 20 -9 11 -4 12 24 5 19 -4
38 -5 41 -1 4 3 5 -1 3 -9 -1 -8 3 -14 10 -12 10 2 10 -2 2 -18 -6 -11 -16
-20 -23 -20 -7 -1 -1 -10 12 -20 24 -21 67 -28 56 -10 -3 6 -15 10 -25 10 -25
0 -34 16 -14 24 8 3 12 2 9 -4 -3 -6 1 -10 10 -10 10 0 14 5 9 13 -6 10 -4 10
7 0 16 -16 49 -17 49 -2 0 6 -9 13 -20 16 -12 3 -20 14 -20 27 0 12 3 16 8 10
13 -20 47 -33 63 -23 11 7 10 9 -6 9 -15 0 -17 2 -6 9 8 5 9 10 3 12 -7 3 -5
15 4 34 8 17 12 23 10 14 -4 -13 4 -18 30 -21 30 -4 35 -1 31 14 -4 14 1 18
24 18 19 0 29 -5 29 -14 0 -20 17 -29 26 -15 4 8 3 9 -4 5 -8 -5 -12 2 -12 18
0 23 3 25 30 20 19 -4 30 -2 30 5 0 6 -4 11 -10 11 -5 0 -10 4 -10 9 0 13 30
7 39 -8 6 -9 10 -7 14 8 3 12 1 24 -4 27 -14 8 -11 46 4 41 7 -2 16 10 22 26
13 39 35 47 35 13 0 -13 5 -28 10 -31 6 -3 10 0 10 7 0 9 3 9 10 -2 8 -12 10
-11 10 6 0 41 21 84 41 84 11 0 24 11 30 24 8 16 23 26 46 31 19 3 38 4 41 1
3 -3 -4 -6 -16 -6 -12 0 -23 -8 -27 -19 -3 -11 -21 -33 -40 -50 -29 -25 -35
-37 -35 -68 l0 -38 20 25 c11 14 20 19 20 12 0 -7 5 -10 10 -7 6 4 8 10 5 15
-3 4 2 13 10 20 12 10 15 9 15 -4 0 -18 25 -22 35 -5 4 6 13 8 21 5 7 -3 16
-1 19 4 4 6 16 10 28 10 18 0 19 2 7 10 -14 10 10 8 61 -6 9 -3 37 3 63 11 26
9 51 13 56 10 6 -3 10 -1 10 4 0 6 9 11 20 11 34 0 22 -27 -14 -33 -19 -3 -42
-12 -52 -21 -11 -8 -30 -24 -44 -36 l-25 -21 45 6 c25 4 55 13 67 21 18 11 22
11 27 -1 3 -8 12 -15 20 -15 17 0 88 -31 96 -42 3 -4 21 -14 40 -22 19 -8 28
-15 20 -16 -8 0 -28 7 -45 16 -65 35 -169 50 -258 38 -66 -8 -109 -54 -52 -54
14 0 25 -4 25 -10 0 -20 48 -34 115 -32 39 0 64 -2 57 -5 -16 -6 3 -33 24 -33
8 0 14 -3 14 -7 0 -5 -33 -7 -74 -5 -41 2 -83 -1 -93 -7 -16 -9 -14 -11 12
-11 17 -1 46 -7 65 -14 34 -12 34 -13 10 -20 -22 -7 -18 -9 30 -22 30 -8 64
-16 75 -18 11 -2 40 -8 64 -14 31 -7 49 -7 61 0 20 13 78 -10 114 -44 20 -19
19 -19 -24 1 -24 11 -48 17 -52 15 -4 -3 -8 -1 -8 4 0 6 -15 6 -42 0 -32 -7
-54 -5 -91 7 -49 16 -75 13 -47 -5 12 -8 10 -10 -7 -10 -13 0 -23 -4 -23 -9 0
-13 43 -19 68 -10 17 6 22 5 22 -7 0 -9 6 -14 13 -11 8 3 14 -1 14 -9 0 -16
-33 -19 -42 -4 -4 6 -11 8 -16 4 -15 -9 10 -34 35 -34 11 -1 32 -8 46 -16 l25
-15 -27 5 c-16 4 -40 9 -54 12 -16 4 -29 2 -34 -6 -5 -7 -13 -9 -21 -4 -14 8
-59 15 -59 9 0 -8 107 -55 124 -55 9 0 16 -6 15 -12 -3 -18 17 -65 29 -69 6
-2 12 -13 14 -24 1 -11 20 -35 41 -54 45 -41 47 -55 7 -46 -33 7 -41 -8 -13
-24 10 -5 15 -13 11 -17 -9 -9 -48 31 -67 69 -13 24 -28 31 -67 30 -6 0 -9 9
-7 21 4 16 2 18 -5 7 -5 -7 -15 -10 -21 -7 -6 4 -11 2 -11 -4 0 -6 -11 -8 -25
-6 -14 3 -25 1 -25 -3 0 -12 57 -41 82 -41 13 0 29 -9 36 -21 7 -11 34 -29 59
-40 25 -11 44 -22 41 -25 -5 -4 -54 14 -100 37 -24 12 -48 11 -48 -2 0 -5 4
-8 9 -5 5 3 12 -2 16 -11 3 -10 1 -19 -4 -21 -6 -2 -11 -8 -11 -13 0 -14 38
-11 42 3 3 9 15 8 46 -4 24 -9 44 -12 48 -7 8 14 24 11 18 -4 -11 -29 30 -57
100 -72 41 -9 77 -23 88 -34 22 -24 24 -39 3 -21 -9 8 -15 8 -15 2 0 -10 -22
-9 -103 3 -19 3 -26 1 -21 -7 5 -8 2 -9 -10 -5 -12 5 -16 3 -14 -5 3 -7 15
-14 29 -16 13 -2 56 -13 94 -23 39 -11 77 -21 85 -23 9 -1 21 -5 28 -10 6 -4
15 -5 20 -3 4 3 12 -1 19 -8 10 -10 9 -14 -3 -19 -29 -11 -82 -6 -94 9 -7 8
-19 15 -26 15 -8 0 -14 4 -14 9 0 12 -56 31 -90 31 -16 0 -30 -6 -33 -14 -4
-10 -14 -12 -29 -8 -19 4 -21 3 -12 -9 17 -21 26 -69 14 -69 -6 0 -8 -5 -4
-12 5 -8 2 -9 -11 -4 -15 6 -16 4 -5 -10 10 -11 10 -18 3 -22 -19 -12 -27 -96
-10 -110 17 -14 22 -108 7 -117 -6 -3 -10 -1 -10 5 0 6 -5 8 -10 5 -14 -8 -9
-75 5 -75 24 1 71 63 60 80 -12 20 -15 59 -5 65 15 9 12 19 -10 45 -44 51 -16
37 38 -19 l57 -60 70 2 c65 2 69 4 75 27 4 17 8 21 13 12 5 -6 17 -17 29 -23
15 -8 19 -8 13 1 -4 7 1 18 13 26 14 10 18 21 14 36 -5 19 -3 21 9 11 12 -10
18 -8 32 7 14 17 21 18 44 9 60 -25 79 -35 91 -51 16 -21 41 -23 48 -5 5 15
-43 152 -76 218 -12 23 -22 56 -23 75 -1 19 -8 36 -14 39 -20 7 -16 46 5 52
30 7 63 82 56 125 -4 21 -13 43 -20 49 -8 6 -14 17 -14 23 0 6 -10 22 -21 36
-14 16 -19 19 -15 8 9 -28 -9 -21 -24 10 -8 15 -14 29 -14 32 -1 3 -5 12 -11
20 -8 13 -7 13 8 1 9 -7 15 -17 12 -21 -3 -4 2 -13 10 -20 16 -13 18 -10 16
30 l-1 25 12 -22 c6 -13 15 -23 21 -23 6 0 5 5 -1 13 -6 6 -10 15 -9 18 1 3
-7 18 -18 33 -11 14 -19 30 -18 34 1 4 -9 21 -21 37 -28 37 -44 81 -26 70 9
-5 11 -4 6 4 -4 6 -11 9 -15 6 -8 -4 -41 69 -41 91 0 6 -9 19 -20 29 -11 10
-20 23 -20 30 0 16 -27 46 -67 74 -37 25 -46 52 -10 29 32 -21 77 -28 77 -13
0 7 -25 21 -56 31 -54 17 -114 56 -114 74 0 5 16 7 36 4 51 -6 39 18 -15 31
-23 5 -39 13 -35 18 6 6 -1 8 -22 6 -11 -1 -64 74 -64 92 0 12 -5 16 -15 13
-9 -4 -15 0 -16 7 -1 20 -61 100 -84 113 -11 6 -26 19 -33 29 -7 9 -19 17 -25
17 -7 0 -25 7 -42 16 -16 9 -42 16 -57 16 -18 0 -28 5 -28 14 0 8 -10 14 -22
14 -17 0 -19 3 -10 12 23 23 12 28 -55 28 -38 0 -75 5 -83 10 -12 8 -11 10 7
10 38 0 35 18 -4 23 -58 8 -82 7 -88 -4 -4 -5 -14 -5 -26 1 -10 6 -40 8 -66 5
-27 -4 -60 -2 -75 4 -16 6 -28 7 -28 3z m245 -40 c-3 -3 -11 0 -18 7 -9 10 -8
11 6 5 10 -3 15 -9 12 -12z m-318 -14 c-3 -8 -6 -5 -6 6 -1 11 2 17 5 13 3 -3
4 -12 1 -19z m268 12 c-28 -12 -57 -12 -50 0 3 6 21 10 38 9 27 0 29 -2 12 -9z
m-88 -16 c-3 -3 -12 -4 -19 -1 -8 3 -5 6 6 6 11 1 17 -2 13 -5z m-327 -38 c0
-3 -4 -8 -10 -11 -5 -3 -10 -1 -10 4 0 6 5 11 10 11 6 0 10 -2 10 -4z m-20
-51 c-7 -9 -15 -13 -19 -10 -3 3 1 10 9 15 21 14 24 12 10 -5z m744 -20 c11
-8 16 -15 10 -15 -5 0 -18 7 -28 15 -11 8 -16 15 -10 15 5 0 18 -7 28 -15z
m-76 -51 c12 0 22 3 22 8 0 4 5 8 10 8 6 0 10 -6 10 -13 0 -9 -24 -13 -85 -14
-47 -1 -85 2 -85 7 0 9 92 18 100 10 3 -3 15 -5 28 -6z m-128 -19 c7 -8 16
-12 21 -9 12 7 89 -15 89 -26 0 -11 -3 -12 -43 -15 -23 -2 -26 1 -21 17 6 19
5 19 -20 3 -14 -10 -24 -20 -22 -24 2 -3 -15 -6 -37 -6 -51 0 -61 12 -27 30
26 15 19 18 -30 16 -24 0 -24 0 3 10 22 9 35 8 53 -2 13 -7 27 -9 31 -6 3 4
-1 7 -10 7 -9 0 -17 5 -17 10 0 15 16 12 30 -5z m-155 -15 c3 -5 -3 -10 -14
-10 -12 0 -21 5 -21 10 0 6 6 10 14 10 8 0 18 -4 21 -10z m421 -7 c8 -3 14
-10 14 -15 0 -13 -94 0 -98 13 -2 5 -8 7 -13 3 -5 -3 -9 0 -9 7 0 11 70 6 106
-8z m-371 -43 c-3 -5 -12 -10 -18 -10 -7 0 -6 4 3 10 19 12 23 12 15 0z m288
-36 c7 -6 19 -13 27 -17 13 -5 13 -6 0 -6 -9 -1 -25 6 -37 14 -22 16 -30 15
-117 -4 -27 -7 -50 -10 -53 -8 -6 7 79 40 104 41 12 1 24 4 28 8 7 6 15 2 48
-28z m55 16 c3 -9 -1 -11 -12 -7 -10 4 -24 7 -32 7 -8 0 -14 5 -14 10 0 15 53
6 58 -10z m37 -18 c-3 -3 -11 0 -18 7 -9 10 -8 11 6 5 10 -3 15 -9 12 -12z
m-1166 -26 c-7 -14 -19 -26 -26 -26 -11 0 -9 8 7 31 26 35 36 33 19 -5z m651
9 c-7 -8 -17 -15 -22 -15 -6 0 -5 7 2 15 7 8 17 15 22 15 6 0 5 -7 -2 -15z
m548 -46 c-19 -12 -88 -11 -88 1 0 6 22 10 50 9 31 -2 46 -5 38 -10z m-1258
-13 c0 -3 -4 -8 -10 -11 -5 -3 -10 -1 -10 4 0 6 5 11 10 11 6 0 10 -2 10 -4z
m607 -48 c-3 -7 -5 -2 -5 12 0 14 2 19 5 13 2 -7 2 -19 0 -25z m-310 0 c-3 -8
-6 -5 -6 6 -1 11 2 17 5 13 3 -3 4 -12 1 -19z m1031 16 c12 -4 22 -10 22 -15
0 -9 -13 -8 -80 10 l-35 9 35 1 c19 0 45 -2 58 -5z m-1041 -76 c-3 -8 -6 -5
-6 6 -1 11 2 17 5 13 3 -3 4 -12 1 -19z m916 -45 c-7 -2 -19 -2 -25 0 -7 3 -2
5 12 5 14 0 19 -2 13 -5z m112 -23 c-3 -5 -12 -10 -20 -10 -8 0 -17 5 -20 10
-4 6 5 10 20 10 15 0 24 -4 20 -10z m-980 -30 c-3 -5 -11 -10 -16 -10 -6 0 -7
5 -4 10 3 6 11 10 16 10 6 0 7 -4 4 -10z m1005 -38 c0 -4 10 -12 22 -17 32
-15 34 -33 3 -28 -14 3 -25 9 -25 14 0 5 -7 9 -15 9 -8 0 -15 7 -15 15 0 8 7
15 15 15 8 0 15 -3 15 -8z m-110 -27 c8 -10 21 -13 37 -9 31 8 103 -15 103
-33 0 -10 -14 -13 -55 -12 -30 1 -52 6 -49 10 6 11 -61 28 -86 22 -14 -4 -20
0 -20 10 0 9 10 18 23 20 12 2 25 5 28 6 4 0 12 -6 19 -14z m-1205 -14 c3 -5
2 -12 -3 -15 -5 -3 -9 1 -9 9 0 17 3 19 12 6z m1375 -30 c0 -5 9 -11 21 -14
14 -4 18 -10 13 -18 -6 -10 -9 -10 -12 -1 -2 7 -12 12 -23 12 -10 0 -19 7 -19
15 0 8 5 15 10 15 6 0 10 -4 10 -9z m-160 -65 c0 -3 -4 -8 -10 -11 -5 -3 -10
-1 -10 4 0 6 5 11 10 11 6 0 10 -2 10 -4z m130 -10 c0 -2 -9 -6 -20 -9 -11 -3
-18 -1 -14 4 5 9 34 13 34 5z m165 -7 c11 -17 2 -18 -19 -3 -17 12 -17 14 -4
14 9 0 20 -5 23 -11z m-128 -25 c-3 -3 -12 -4 -19 -1 -8 3 -5 6 6 6 11 1 17
-2 13 -5z m186 -10 c18 -9 41 -26 53 -38 11 -12 30 -28 42 -36 26 -17 30 -34
5 -21 -10 5 -30 14 -45 21 -34 16 -98 69 -98 81 0 13 6 11 43 -7z m-123 -9
c14 -8 21 -14 15 -14 -5 0 -21 6 -35 14 -14 8 -20 14 -15 14 6 0 21 -6 35 -14z
m-1590 -49 c0 -11 -19 -15 -25 -6 -3 5 1 10 9 10 9 0 16 -2 16 -4z m1396 -11
c10 -8 14 -15 8 -15 -5 0 -19 7 -30 15 -10 8 -14 15 -8 15 5 0 19 -7 30 -15z
m217 -44 c48 -32 59 -45 32 -35 -8 4 -15 4 -15 1 0 -2 36 -19 80 -38 44 -18
78 -34 77 -35 -6 -6 -229 64 -240 75 -8 8 -7 11 2 11 11 0 11 3 0 17 -12 14
-12 16 0 8 11 -6 13 -2 7 21 -4 16 -3 24 1 18 4 -6 29 -25 56 -43z m-108 29
c3 -6 -1 -7 -9 -4 -18 7 -21 14 -7 14 6 0 13 -4 16 -10z m-1522 -15 c-3 -9 -8
-14 -10 -11 -3 3 -2 9 2 15 9 16 15 13 8 -4z m1540 -74 c32 -33 56 -64 52 -70
-3 -6 0 -9 8 -5 9 3 16 -3 19 -14 3 -10 24 -28 46 -38 52 -24 56 -45 7 -34
-40 9 -56 20 -98 68 -16 17 -33 32 -38 32 -6 0 -22 11 -36 24 -18 17 -24 30
-19 42 5 13 0 24 -16 36 -21 16 -21 18 -4 18 11 0 46 -27 79 -59z m-1682 26
c-10 -9 -11 -8 -5 6 3 10 9 15 12 12 3 -3 0 -11 -7 -18z m1954 3 c13 -6 15 -9
5 -9 -8 0 -22 4 -30 9 -18 12 -2 12 25 0z m-75 -20 c0 -5 -2 -10 -4 -10 -3 0
-8 5 -11 10 -3 6 -1 10 4 10 6 0 11 -4 11 -10z m125 -20 c16 -17 16 -20 3 -15
-9 4 -19 13 -22 21 -7 19 -2 18 19 -6z m-1998 -77 c-2 -16 -4 -5 -4 22 0 28 2
40 4 28 2 -13 2 -35 0 -50z m83 20 c0 -7 -4 -13 -10 -13 -5 0 -10 6 -10 14 0
8 -3 23 -6 33 -5 16 -4 16 10 -1 9 -11 16 -26 16 -33z m1786 13 c101 -40 157
-44 122 -7 -7 7 8 0 33 -16 43 -26 50 -44 11 -28 -20 9 -112 12 -112 5 0 -3
-16 -7 -35 -8 -33 -2 -41 5 -36 32 1 5 -6 3 -15 -5 -10 -8 -15 -9 -12 -4 8 14
-1 28 -27 43 -37 21 8 13 71 -12z m-1793 -42 c-7 -3 -9 -12 -6 -20 6 -16 -13
-19 -23 -3 -7 11 13 29 31 28 6 0 5 -3 -2 -5z m2064 -63 c19 -45 12 -49 -12
-6 -10 19 -22 35 -27 35 -4 0 -8 7 -8 16 0 25 30 -3 47 -45z m-41 -16 c26 -26
30 -65 7 -73 -9 -2 -13 9 -13 36 0 31 -5 41 -22 50 -13 6 -17 11 -10 11 7 1
24 -10 38 -24z m-326 -10 l45 -25 -40 5 c-22 3 -45 6 -52 7 -7 1 -9 6 -6 11 3
5 -1 13 -8 18 -33 20 18 7 61 -16z m127 0 c0 -8 -4 -15 -9 -15 -4 0 -8 7 -8
15 0 8 4 15 8 15 5 0 9 -7 9 -15z m159 -12 c13 -20 13 -25 2 -16 -8 7 -17 11
-19 8 -3 -2 -5 5 -5 15 0 25 0 25 22 -7z m-197 -79 c11 -11 -10 -14 -28 -5
-12 7 -22 7 -26 1 -8 -13 -55 10 -55 27 0 8 -4 12 -9 9 -5 -3 -11 1 -14 8 -4
11 11 8 61 -11 37 -13 69 -27 71 -29z m-1338 27 c-7 -5 -11 -14 -7 -20 8 -12
-32 -96 -42 -87 -3 4 0 12 6 18 7 7 12 29 12 49 0 34 9 46 35 48 6 0 4 -3 -4
-8z m-466 -91 c-3 -5 -10 -10 -16 -10 -5 0 -9 5 -9 10 0 6 7 10 16 10 8 0 12
-4 9 -10z m1790 -40 c4 -6 10 -8 14 -6 4 3 13 1 21 -5 11 -6 7 -9 -16 -9 -16
0 -39 7 -50 15 -19 14 -19 14 3 15 12 0 25 -5 28 -10z m-1275 -50 c0 -5 -4
-10 -10 -10 -5 0 -10 5 -10 10 0 6 5 10 10 10 6 0 10 -4 10 -10z m60 -25 c0
-12 -29 -3 -34 10 -4 13 -2 14 14 5 11 -6 20 -13 20 -15z m193 11 c13 -10 15
-15 5 -18 -7 -3 -18 1 -25 8 -26 25 -10 33 20 10z m917 -6 c0 -4 -7 -10 -15
-14 -10 -4 -15 1 -15 14 0 13 5 18 15 14 8 -4 15 -10 15 -14z m57 -22 c-3 -8
-6 -5 -6 6 -1 11 2 17 5 13 3 -3 4 -12 1 -19z m66 -13 c9 -4 17 -14 17 -23 0
-13 -2 -13 -18 1 -10 10 -26 17 -36 17 -9 0 -15 4 -12 9 6 10 20 9 49 -4z
m-105 -2 c-10 -2 -18 -11 -18 -19 0 -8 -10 -14 -22 -14 l-23 0 25 20 c14 11
32 19 40 19 11 -1 10 -3 -2 -6z m-903 -23 c44 -10 82 -17 86 -14 4 2 12 -3 18
-10 10 -12 7 -14 -21 -10 -58 9 -163 36 -172 45 -14 13 -3 11 89 -11z m979 -2
c-2 -3 9 -9 26 -13 16 -4 30 -11 30 -16 0 -5 6 -9 14 -9 8 0 17 -4 21 -9 3 -6
-23 -8 -65 -6 -38 1 -72 -1 -75 -5 -2 -4 22 -17 55 -29 74 -27 88 -44 19 -24
-28 8 -53 13 -55 10 -3 -3 8 -19 25 -36 36 -37 39 -46 11 -31 -11 6 -20 15
-20 21 0 6 -5 7 -12 3 -6 -4 -8 -3 -5 3 4 6 0 16 -8 23 -12 10 -13 16 -3 28
11 13 9 14 -12 7 -14 -4 -22 -4 -18 0 4 5 0 14 -10 22 -10 9 -11 11 -2 7 12
-6 13 -5 4 7 -5 8 -9 20 -8 27 1 6 2 17 3 22 0 6 20 10 45 8 24 -2 42 -6 40
-10z m112 -6 c-10 -2 -22 0 -28 6 -6 6 0 7 19 4 21 -5 23 -7 9 -10z m-1751
-12 c3 -6 -1 -7 -9 -4 -18 7 -21 14 -7 14 6 0 13 -4 16 -10z m1912 -52 c-3 -8
-6 -5 -6 6 -1 11 2 17 5 13 3 -3 4 -12 1 -19z m-1321 -25 c-10 -10 -19 5 -10
18 6 11 8 11 12 0 2 -7 1 -15 -2 -18z m954 14 c0 -7 15 -36 34 -65 l35 -52
-31 0 c-17 0 -28 3 -25 6 3 4 -4 15 -17 25 -23 18 -41 72 -30 90 8 14 34 11
34 -4z m-1045 -17 c-3 -5 -14 -10 -23 -10 -15 0 -15 2 -2 10 20 13 33 13 25 0z
m149 -6 c4 -10 1 -14 -6 -12 -15 5 -23 28 -10 28 5 0 13 -7 16 -16z m1346 -15
c0 -11 -4 -17 -10 -14 -5 3 -10 15 -10 26 0 11 5 17 10 14 6 -3 10 -15 10 -26z
m-1913 -6 c1 -24 0 -25 -6 -8 -7 17 -6 35 2 35 2 0 3 -12 4 -27z m683 13 c0
-2 -8 -10 -17 -17 -16 -13 -17 -12 -4 4 13 16 21 21 21 13z m-254 -28 c-9 -5
-23 -5 -32 0 -12 6 -7 9 16 9 23 0 28 -3 16 -9z m974 -28 c0 -5 -5 -10 -11
-10 -5 0 -7 5 -4 10 3 6 8 10 11 10 2 0 4 -4 4 -10z m-1738 -29 c-18 -12 -21
-43 -10 -91 6 -28 15 -50 20 -50 18 0 20 32 3 66 -16 34 -16 36 1 48 10 7 27
11 38 8 19 -5 20 -4 6 13 -14 17 -14 17 5 7 11 -5 52 -9 90 -6 75 4 120 -9 73
-21 -15 -4 -25 -12 -22 -19 3 -8 -11 -18 -36 -26 -22 -7 -40 -16 -40 -21 0
-10 49 -21 60 -14 6 4 10 -1 10 -9 0 -8 -5 -18 -10 -21 -11 -7 -4 -25 10 -25
5 0 7 6 5 13 -6 17 21 50 35 42 14 -9 3 -136 -14 -150 -6 -5 -11 -16 -12 -22
-5 -58 -5 -59 -13 -39 -7 19 -8 19 -13 -2 -4 -12 -2 -24 3 -27 16 -10 0 -96
-25 -128 -13 -18 -21 -38 -19 -44 3 -8 -4 -13 -15 -13 -23 0 -32 18 -33 63 0
18 -3 26 -6 19 -7 -17 -23 -5 -23 18 0 10 -5 20 -10 22 -6 2 -11 18 -13 36 -1
17 -6 32 -10 32 -5 0 -6 4 -2 10 9 15 -6 58 -23 65 -14 5 -15 4 -4 -6 6 -7 12
-28 12 -47 l0 -35 -22 29 c-12 16 -26 32 -30 35 -16 10 -48 109 -47 142 1 40
31 127 44 127 6 0 11 8 11 18 1 9 2 21 3 26 1 5 8 3 16 -4 9 -7 12 -16 7 -19z
m115 23 c-3 -3 -12 -4 -19 -1 -8 3 -5 6 6 6 11 1 17 -2 13 -5z m1512 -370 c-6
-8 -15 -14 -20 -14 -14 0 -11 28 4 33 20 7 29 -4 16 -19z m1 -44 c0 -5 -4 -10
-10 -10 -5 0 -10 5 -10 10 0 6 5 10 10 10 6 0 10 -4 10 -10z m-213 -112 c0 -7
3 -24 7 -38 7 -24 6 -24 -8 -6 -17 21 -20 38 -9 49 9 9 10 9 10 -5z m-49 -43
c-3 -3 -9 2 -12 12 -6 14 -5 15 5 6 7 -7 10 -15 7 -18z m-1223 -5 c3 -5 -1
-10 -9 -10 -9 0 -16 5 -16 10 0 6 4 10 9 10 6 0 13 -4 16 -10z m342 -20 c-4
-27 -11 -32 -52 -36 -37 -3 -38 1 -6 38 22 25 62 24 58 -2z m1117 5 c-4 -8
-10 -12 -15 -9 -14 8 -10 24 6 24 9 0 12 -6 9 -15z m-334 -47 c0 -18 -2 -20
-9 -8 -6 8 -7 18 -5 22 9 14 14 9 14 -14z m-47 -18 c3 -11 1 -18 -4 -14 -5 3
-9 12 -9 20 0 20 7 17 13 -6z m151 -25 c-4 -9 0 -15 9 -15 9 0 23 -3 33 -7 13
-5 15 -3 9 7 -5 9 -4 11 4 6 15 -10 42 -62 35 -69 -4 -3 9 -10 27 -14 35 -10
52 -33 23 -33 -23 0 -64 39 -64 61 0 24 -20 35 -21 12 0 -15 -2 -14 -11 5 -11
22 -28 30 -28 12 0 -5 -5 -10 -11 -10 -5 0 -8 4 -4 9 3 5 1 12 -5 16 -13 8
-13 35 0 35 5 0 7 -7 4 -15z m-1103 -22 c-8 -15 -10 -15 -11 -2 0 17 10 32 18
25 2 -3 -1 -13 -7 -23z m926 5 c-3 -8 -6 -5 -6 6 -1 11 2 17 5 13 3 -3 4 -12
1 -19z m143 -6 c0 -14 -11 -21 -26 -15 -21 8 -17 23 6 23 11 0 20 -4 20 -8z
m251 -35 c-16 -16 -26 0 -10 19 9 11 15 12 17 4 2 -6 -1 -17 -7 -23z m-371
-41 c0 -5 -9 3 -20 17 -11 14 -20 29 -20 34 1 10 39 -39 40 -51z m70 14 c8 -5
12 -10 8 -10 -4 0 -3 -11 2 -25 16 -43 -16 -41 -39 3 -18 34 -2 52 29 32z
m161 -16 c10 -13 10 -17 -2 -25 -19 -12 -39 -11 -39 1 0 5 7 7 16 3 14 -5 15
-3 5 15 -14 25 0 29 20 6z m-341 -44 c7 -16 18 -31 24 -32 6 0 16 -2 21 -2 6
-1 16 -5 23 -9 7 -5 12 -3 12 4 0 7 8 9 21 6 17 -4 19 -3 10 6 -15 15 -14 27
2 27 6 0 23 -16 36 -35 18 -27 21 -38 12 -49 -9 -11 -9 -15 0 -18 7 -2 10 -11
6 -21 -5 -13 -14 -16 -37 -12 -29 5 -41 -7 -20 -20 6 -3 10 -11 10 -18 0 -8
-3 -8 -12 1 -17 17 -33 15 -18 -3 9 -10 9 -15 1 -15 -6 0 -11 5 -11 10 0 6
-12 16 -27 22 -27 11 -27 12 -5 16 17 3 21 8 17 23 -3 10 -8 28 -11 39 -3 11
-9 20 -14 20 -5 0 -7 -7 -3 -15 3 -10 0 -15 -8 -13 -8 2 -17 14 -20 28 -4 14
-14 42 -23 63 -10 22 -13 36 -8 33 5 -3 15 -19 22 -36z m257 34 c-3 -3 -12 -4
-19 -1 -8 3 -5 6 6 6 11 1 17 -2 13 -5z m-1007 -58 c27 1 57 7 64 13 15 12 69
4 61 -9 -6 -10 41 -34 53 -26 6 3 13 2 17 -4 3 -5 11 -10 16 -10 6 0 7 5 4 10
-3 6 1 10 9 10 9 0 16 4 16 10 0 6 10 5 25 -2 14 -6 25 -17 25 -25 0 -8 15
-20 33 -28 17 -8 27 -14 21 -15 -6 0 -28 7 -48 15 -20 9 -67 18 -104 21 -80 7
-84 7 -142 -1 -36 -6 -49 -4 -59 9 -16 19 -34 20 -83 2 -47 -17 -49 -6 -6 28
25 19 34 22 40 12 4 -8 25 -12 58 -10z m1040 4 c0 -5 -2 -10 -4 -10 -3 0 -8 5
-11 10 -3 6 -1 10 4 10 6 0 11 -4 11 -10z m-1101 -97 c6 -13 8 -29 5 -35 -4
-6 1 -17 10 -24 17 -12 17 -14 -3 -35 -12 -13 -21 -18 -21 -13 0 6 5 15 11 21
15 15 3 33 -21 33 -13 0 -17 -5 -14 -15 4 -8 1 -15 -6 -15 -8 0 -10 9 -6 25 5
18 2 27 -9 31 -17 7 -20 35 -4 51 16 16 45 4 58 -24z m134 27 c153 6 240 -8
258 -42 5 -9 21 -29 34 -44 18 -19 25 -22 25 -11 0 8 -5 17 -12 19 -11 4 -21
38 -11 38 17 0 43 -24 43 -40 0 -10 8 -27 18 -36 16 -17 16 -18 0 -11 -10 3
-18 2 -18 -4 0 -6 -4 -8 -9 -4 -20 12 -21 -17 -2 -44 25 -35 26 -41 5 -41 -9
0 -12 5 -8 11 4 7 1 10 -7 7 -8 -3 -13 -11 -11 -17 4 -18 -12 -13 -26 9 -7 11
-20 20 -29 20 -9 0 -25 8 -35 17 -16 14 -23 15 -39 5 -16 -11 -19 -9 -19 8 0
18 -3 19 -22 9 -17 -9 -23 -9 -26 0 -2 6 -8 9 -13 5 -5 -3 -9 0 -9 5 0 15 -33
14 -49 -1 -11 -11 -13 -9 -8 10 4 17 2 21 -6 14 -19 -15 -57 -21 -63 -10 -3 5
-17 7 -30 4 -14 -4 -24 -2 -24 4 0 5 6 10 13 10 8 0 7 3 -3 10 -8 5 -15 13
-15 17 -1 4 -4 18 -9 30 -11 32 10 66 35 58 12 -4 44 -6 72 -5z m59 -165 c-2
-14 -6 -25 -8 -25 -2 0 -4 11 -4 25 0 14 4 25 9 25 4 0 6 -11 3 -25z m-241
-165 c5 0 9 -8 9 -17 -1 -15 -4 -14 -20 6 -11 12 -17 28 -13 35 5 7 9 5 11 -6
2 -10 8 -18 13 -18z m485 -119 c0 -11 -4 -17 -8 -15 -4 3 -8 12 -8 20 0 8 4
14 8 14 4 0 8 -9 8 -19z m234 -65 c0 -3 -4 -8 -10 -11 -5 -3 -10 -1 -10 4 0 6
5 11 10 11 6 0 10 -2 10 -4z m-490 -60 c0 -3 -4 -8 -10 -11 -5 -3 -10 -1 -10
4 0 6 5 11 10 11 6 0 10 -2 10 -4z m-210 -131 c0 -8 -7 -15 -16 -15 -14 0 -14
3 -4 15 7 8 14 15 16 15 2 0 4 -7 4 -15z m21 -138 c-10 -9 -11 -8 -5 6 3 10 9
15 12 12 3 -3 0 -11 -7 -18z m-111 -6 c-11 -21 -30 -37 -30 -25 0 8 30 44 37
44 2 0 -1 -9 -7 -19z m110 -476 c0 -8 -2 -15 -4 -15 -2 0 -6 7 -10 15 -3 8 -1
15 4 15 6 0 10 -7 10 -15z"/>
<path d="M1227 2089 c-7 -28 -6 -31 10 -14 6 6 8 18 3 24 -5 9 -9 5 -13 -10z"/>
<path d="M1070 2071 c0 -9 30 -24 36 -18 2 1 -6 8 -16 15 -11 7 -20 8 -20 3z"/>
<path d="M1120 2071 c0 -12 29 -23 41 -15 5 3 7 10 4 15 -8 12 -45 12 -45 0z"/>
<path d="M1060 2021 c0 -5 5 -13 10 -16 6 -3 10 -2 10 4 0 5 -4 13 -10 16 -5
3 -10 2 -10 -4z"/>
<path d="M1743 1306 c4 -10 7 -22 7 -27 0 -5 4 -9 9 -9 12 0 2 38 -12 47 -7 4
-8 0 -4 -11z"/>
<path d="M1780 1200 c0 -5 5 -10 11 -10 5 0 7 5 4 10 -3 6 -8 10 -11 10 -2 0
-4 -4 -4 -10z"/>
<path d="M3390 3935 c0 -18 4 -36 9 -40 6 -3 9 3 9 12 0 10 2 25 6 34 5 10 1
19 -8 22 -13 5 -16 -1 -16 -28z"/>
<path d="M3940 3897 c0 -4 -5 -5 -10 -2 -6 3 -13 -2 -17 -12 -4 -10 -15 -27
-25 -37 -25 -27 -23 -43 3 -20 12 10 22 17 23 14 3 -11 64 35 63 50 -1 16 -37
23 -37 7z"/>
<path d="M1060 3870 c0 -5 5 -10 11 -10 5 0 7 5 4 10 -3 6 -8 10 -11 10 -2 0
-4 -4 -4 -10z"/>
<path d="M444 3857 c3 -10 6 -25 6 -33 0 -8 5 -14 10 -14 15 0 12 24 -6 46
-14 17 -15 17 -10 1z"/>
<path d="M221 3824 c0 -11 3 -14 6 -6 3 7 2 16 -1 19 -3 4 -6 -2 -5 -13z"/>
<path d="M3392 3810 c0 -14 2 -19 5 -12 2 6 2 18 0 25 -3 6 -5 1 -5 -13z"/>
<path d="M3361 3749 c-11 -19 -24 -39 -30 -46 -14 -16 -25 -63 -15 -63 10 0
76 131 70 138 -3 2 -14 -11 -25 -29z"/>
<path d="M1080 3749 c0 -31 12 -79 21 -79 9 0 1 57 -12 80 -7 13 -8 13 -9 -1z"/>
<path d="M3796 3684 c-5 -14 -4 -15 9 -4 17 14 19 20 6 20 -5 0 -12 -7 -15
-16z"/>
<path d="M3686 3662 c-3 -6 -1 -14 5 -17 15 -10 25 3 12 16 -7 7 -13 7 -17 1z"/>
<path d="M2959 3608 c0 -2 -2 -14 -5 -27 -4 -20 -2 -22 10 -12 8 7 12 19 9 27
-5 12 -12 18 -14 12z"/>
<path d="M659 3563 c-1 -70 -6 -121 -14 -133 -6 -9 -3 -9 14 -1 11 7 21 8 22
4 0 -4 4 1 9 12 8 18 6 78 -6 133 -7 36 -24 25 -25 -15z"/>
<path d="M890 3586 c0 -9 5 -16 10 -16 6 0 10 4 10 9 0 6 -4 13 -10 16 -5 3
-10 -1 -10 -9z"/>
<path d="M2345 3543 c-22 -6 -35 -21 -35 -40 0 -7 7 -10 18 -7 14 5 14 3 -2
-10 -20 -16 -20 -16 1 -16 11 0 26 7 34 16 7 8 26 23 43 31 l31 17 -25 7 c-29
8 -38 8 -65 2z"/>
<path d="M3290 3541 c0 -6 4 -13 10 -16 6 -3 7 1 4 9 -7 18 -14 21 -14 7z"/>
<path d="M1048 3528 c-5 -13 17 -76 32 -92 5 -5 3 15 -5 44 -15 58 -21 68 -27
48z"/>
<path d="M2127 3464 c-4 -4 -7 -14 -7 -23 0 -11 3 -12 11 -4 6 6 10 16 7 23
-2 6 -7 8 -11 4z"/>
<path d="M3555 3430 c-4 -17 -5 -34 -2 -36 2 -3 7 10 11 27 8 42 0 50 -9 9z"/>
<path d="M646 3375 c-3 -8 -1 -15 4 -15 13 0 22 18 11 24 -5 3 -11 -1 -15 -9z"/>
<path d="M3501 3344 c0 -11 3 -14 6 -6 3 7 2 16 -1 19 -3 4 -6 -2 -5 -13z"/>
<path d="M1805 3330 c-3 -5 3 -10 14 -10 11 0 23 5 26 10 3 6 -3 10 -14 10
-11 0 -23 -4 -26 -10z"/>
<path d="M583 3292 c-15 -35 -33 -102 -27 -102 2 0 8 10 13 23 5 12 16 39 25
59 9 20 12 39 8 42 -4 2 -13 -7 -19 -22z"/>
<path d="M1860 3310 c0 -6 11 -8 28 -4 39 10 40 14 4 14 -18 0 -32 -5 -32 -10z"/>
<path d="M1818 3293 c-26 -6 -22 -22 8 -33 32 -12 34 -12 34 1 0 5 -5 7 -12 3
-8 -5 -9 -2 -5 9 7 19 -1 25 -25 20z"/>
<path d="M3500 3280 c0 -11 2 -20 4 -20 2 0 6 9 9 20 3 11 1 20 -4 20 -5 0 -9
-9 -9 -20z"/>
<path d="M1630 3226 c0 -2 7 -7 16 -10 8 -3 12 -2 9 4 -6 10 -25 14 -25 6z"/>
<path d="M1310 3100 c0 -5 5 -10 10 -10 6 0 10 5 10 10 0 6 -4 10 -10 10 -5 0
-10 -4 -10 -10z"/>
<path d="M1392 3061 c-11 -7 -11 -9 2 -14 10 -4 16 -1 16 8 0 17 -1 17 -18 6z"/>
<path d="M1296 2974 c-4 -9 -4 -19 -1 -22 2 -3 7 3 11 12 4 9 4 19 1 22 -2 3
-7 -3 -11 -12z"/>
<path d="M1375 2943 c-6 -24 6 -42 28 -43 11 0 9 18 -4 25 -6 4 -8 13 -5 21 3
7 1 16 -3 19 -5 2 -12 -7 -16 -22z"/>
<path d="M1341 2924 c0 -11 3 -14 6 -6 3 7 2 16 -1 19 -3 4 -6 -2 -5 -13z"/>
<path d="M2588 2923 c7 -3 16 -2 19 1 4 3 -2 6 -13 5 -11 0 -14 -3 -6 -6z"/>
<path d="M1300 2891 c0 -11 5 -23 10 -26 6 -4 10 5 10 19 0 14 -4 26 -10 26
-5 0 -10 -9 -10 -19z"/>
<path d="M1370 2890 c0 -5 -6 -9 -12 -7 -8 1 -15 -13 -18 -38 -5 -41 -12 -46
-65 -47 -11 0 -14 -2 -7 -5 6 -3 12 -11 12 -19 0 -9 4 -13 9 -9 18 10 23 -16
7 -34 -9 -10 -13 -21 -9 -24 3 -4 1 -7 -5 -7 -13 0 -17 -52 -5 -63 9 -9 33 12
33 29 0 8 -8 14 -17 15 -16 0 -16 1 -1 7 18 8 58 55 58 69 0 5 14 35 31 68 27
53 28 58 8 40 l-22 -20 7 28 c3 15 4 27 1 27 -3 0 -5 -4 -5 -10z"/>
<path d="M1275 2860 c3 -5 8 -10 11 -10 2 0 4 5 4 10 0 6 -5 10 -11 10 -5 0
-7 -4 -4 -10z"/>
<path d="M20 2820 c0 -12 28 -25 36 -17 3 3 -4 10 -15 17 -15 7 -21 7 -21 0z"/>
<path d="M2656 2731 c-3 -5 3 -11 14 -14 21 -5 32 1 24 14 -7 12 -31 11 -38 0z"/>
<path d="M730 2723 c0 -5 5 -15 10 -23 8 -12 10 -11 10 8 0 12 -4 22 -10 22
-5 0 -10 -3 -10 -7z"/>
<path d="M2676 2701 c-15 -6 -11 -10 25 -24 25 -9 57 -17 72 -17 16 0 26 -4
23 -9 -6 -9 14 -14 107 -27 33 -4 47 -3 47 6 0 6 -8 9 -17 6 -15 -5 -114 25
-223 67 -8 3 -23 2 -34 -2z"/>
<path d="M3656 2678 c10 -14 21 -24 23 -22 3 3 -6 15 -18 27 l-24 22 19 -27z"/>
<path d="M3835 2690 c3 -5 8 -10 11 -10 2 0 4 5 4 10 0 6 -5 10 -11 10 -5 0
-7 -4 -4 -10z"/>
<path d="M1551 2654 c0 -11 3 -14 6 -6 3 7 2 16 -1 19 -3 4 -6 -2 -5 -13z"/>
<path d="M686 2637 c3 -10 9 -15 12 -12 3 3 0 11 -7 18 -10 9 -11 8 -5 -6z"/>
<path d="M1480 2630 c0 -19 3 -21 12 -12 9 9 9 15 0 24 -9 9 -12 7 -12 -12z"/>
<path d="M2745 2640 c3 -5 13 -10 21 -10 8 0 12 5 9 10 -3 6 -13 10 -21 10 -8
0 -12 -4 -9 -10z"/>
<path d="M2240 2616 c0 -2 7 -9 15 -16 13 -11 14 -10 9 4 -5 14 -24 23 -24 12z"/>
<path d="M2724 2613 c12 -3 15 -7 7 -12 -8 -5 -4 -14 13 -30 15 -14 26 -19 31
-12 3 6 1 11 -4 11 -6 0 -11 5 -11 10 0 6 7 10 16 10 14 0 14 3 4 15 -7 8 -27
14 -44 14 -19 -1 -24 -3 -12 -6z"/>
<path d="M2205 2590 c3 -5 14 -10 23 -10 15 0 15 2 2 10 -20 13 -33 13 -25 0z"/>
<path d="M2152 2581 c-9 -5 -5 -11 14 -20 33 -15 40 -10 16 12 -10 9 -23 13
-30 8z"/>
<path d="M3796 2535 c7 -17 44 -41 44 -28 0 4 -12 16 -25 26 -20 15 -24 15
-19 2z"/>
<path d="M655 2480 c-3 -5 -1 -10 4 -10 6 0 11 5 11 10 0 6 -2 10 -4 10 -3 0
-8 -4 -11 -10z"/>
<path d="M2230 2446 c0 -2 7 -9 15 -16 9 -7 15 -8 15 -2 0 5 -7 12 -15 16 -8
3 -15 4 -15 2z"/>
<path d="M2720 2404 c0 -8 5 -12 10 -9 6 3 10 10 10 16 0 5 -4 9 -10 9 -5 0
-10 -7 -10 -16z"/>
<path d="M2661 2374 c0 -11 3 -14 6 -6 3 7 2 16 -1 19 -3 4 -6 -2 -5 -13z"/>
<path d="M2710 2336 c0 -13 7 -27 16 -30 12 -5 15 -2 10 10 -3 8 -6 22 -6 30
0 8 -4 14 -10 14 -5 0 -10 -11 -10 -24z"/>
<path d="M2657 2337 c-4 -10 2 -37 14 -63 17 -35 24 -42 35 -33 11 9 10 14 -6
28 -10 9 -23 32 -28 51 -6 27 -10 31 -15 17z"/>
<path d="M1930 2260 c-12 -8 -12 -10 5 -10 11 0 27 5 35 10 12 8 12 10 -5 10
-11 0 -27 -5 -35 -10z"/>
<path d="M2640 2245 c0 -8 27 -35 34 -35 14 0 4 20 -14 30 -11 6 -20 8 -20 5z"/>
<path d="M3788 2244 c-4 -6 0 -23 8 -39 8 -16 12 -35 10 -42 -3 -7 -1 -13 4
-13 6 0 10 11 10 25 0 14 -4 25 -9 25 -5 0 -11 12 -13 28 -2 15 -6 22 -10 16z"/>
<path d="M3171 2236 c9 -8 98 -13 93 -5 -3 5 -26 9 -51 9 -26 0 -44 -2 -42 -4z"/>
<path d="M1420 2226 c0 -2 7 -7 16 -10 8 -3 12 -2 9 4 -6 10 -25 14 -25 6z"/>
<path d="M2930 2204 c31 -19 50 -56 44 -87 l-5 -22 12 23 c7 12 17 22 23 22 6
0 0 10 -14 21 l-25 20 25 -7 c14 -3 31 -11 38 -16 8 -7 12 -7 12 1 0 6 7 11
15 11 9 0 19 8 22 18 4 9 11 20 17 24 8 6 8 8 0 8 -6 0 -19 -9 -29 -20 -10
-11 -28 -20 -39 -20 -12 0 -39 9 -61 20 -46 24 -71 26 -35 4z"/>
<path d="M2908 2145 c-20 -26 -22 -35 -10 -35 4 0 15 14 24 30 20 36 10 39
-14 5z"/>
<path d="M1781 2148 c-1 -10 6 -18 14 -18 8 0 15 5 15 11 0 5 -4 8 -9 5 -5 -4
-12 0 -14 6 -3 8 -6 6 -6 -4z"/>
<path d="M1840 2155 c0 -12 35 -75 42 -75 4 0 -2 18 -13 40 -19 36 -29 48 -29
35z"/>
<path d="M3065 2100 c3 -5 8 -10 11 -10 2 0 4 5 4 10 0 6 -5 10 -11 10 -5 0
-7 -4 -4 -10z"/>
<path d="M2880 2089 c0 -5 5 -7 10 -4 6 3 10 8 10 11 0 2 -4 4 -10 4 -5 0 -10
-5 -10 -11z"/>
<path d="M3125 2053 c10 -57 14 -68 25 -57 6 6 6 23 -1 46 -14 52 -32 60 -24
11z"/>
<path d="M2977 2021 c9 -36 -6 -89 -27 -96 -11 -4 -20 -13 -20 -21 0 -23 18
-16 44 19 29 37 34 88 12 106 -12 10 -13 8 -9 -8z"/>
<path d="M3030 1910 c-13 -8 -13 -10 2 -10 9 0 20 5 23 10 8 13 -5 13 -25 0z"/>
<path d="M2965 1900 c-4 -6 5 -10 20 -10 15 0 24 4 20 10 -3 6 -12 10 -20 10
-8 0 -17 -4 -20 -10z"/>
<path d="M1700 1795 c0 -22 -7 -49 -15 -59 -25 -33 -16 -43 10 -11 25 31 32
69 15 95 -7 11 -10 5 -10 -25z"/>
<path d="M1756 1773 c-6 -14 -5 -15 5 -6 7 7 10 15 7 18 -3 3 -9 -2 -12 -12z"/>
<path d="M3105 1770 c-35 -39 -121 -89 -162 -96 -27 -4 -43 -3 -43 4 0 5 -9
12 -20 15 -12 3 -20 14 -20 27 0 11 -4 18 -10 15 -5 -3 -10 -17 -10 -31 0 -30
38 -47 92 -42 24 2 34 0 28 -6 -14 -14 -12 -23 11 -44 l20 -20 -26 -6 c-20 -5
-25 -11 -20 -25 3 -11 0 -25 -7 -33 -25 -27 -39 -59 -33 -77 3 -11 0 -21 -8
-24 -17 -6 -29 -67 -14 -67 6 0 2 -10 -9 -22 -17 -20 -17 -21 -1 -8 15 11 20
11 27 1 9 -15 50 -6 50 11 0 7 -4 7 -13 0 -19 -16 -32 -1 -32 38 0 27 4 35 20
38 49 7 65 13 65 23 0 8 -4 8 -14 0 -11 -9 -15 -8 -20 5 -7 19 2 37 15 29 5
-4 17 -1 26 5 17 11 17 11 1 6 -24 -7 -23 -1 4 24 12 11 19 20 15 20 -3 0 11
18 33 40 22 22 36 40 33 40 -3 0 1 8 10 18 10 10 14 21 11 25 -3 3 6 18 20 34
27 29 33 43 16 43 -6 0 -6 9 0 26 13 33 13 34 -3 34 -8 0 -22 -9 -32 -20z
m-155 -330 c0 -5 -4 -10 -10 -10 -5 0 -10 5 -10 10 0 6 5 10 10 10 6 0 10 -4
10 -10z"/>
<path d="M2086 1720 c7 -38 11 -46 19 -38 3 3 -2 20 -10 39 l-16 34 7 -35z"/>
<path d="M2090 1652 c0 -5 7 -15 15 -22 8 -7 15 -8 15 -2 0 5 -7 15 -15 22 -8
7 -15 8 -15 2z"/>
<path d="M1880 1641 c0 -5 7 -11 15 -15 8 -3 15 -12 15 -19 0 -17 38 -53 47
-44 3 4 2 7 -3 7 -6 0 -20 18 -33 40 -21 37 -41 52 -41 31z"/>
<path d="M3070 1580 c-9 -6 -10 -10 -3 -10 6 0 15 5 18 10 8 12 4 12 -15 0z"/>
<path d="M2845 1420 c-3 -5 -1 -10 4 -10 6 0 11 5 11 10 0 6 -2 10 -4 10 -3 0
-8 -4 -11 -10z"/>
<path d="M2988 1413 c7 -3 16 -2 19 1 4 3 -2 6 -13 5 -11 0 -14 -3 -6 -6z"/>
<path d="M2955 1400 c-3 -5 -1 -10 4 -10 6 0 11 5 11 10 0 6 -2 10 -4 10 -3 0
-8 -4 -11 -10z"/>
<path d="M2837 1372 c-10 -10 -17 -22 -17 -26 0 -9 49 27 50 37 0 13 -17 7
-33 -11z"/>
<path d="M2686 1363 c-6 -14 -5 -15 5 -6 7 7 10 15 7 18 -3 3 -9 -2 -12 -12z"/>
<path d="M2983 1343 c9 -8 -41 -34 -78 -40 -16 -2 -34 -9 -40 -14 -17 -17 67
-1 85 16 26 23 36 1 15 -32 -14 -21 -15 -27 -4 -34 9 -5 16 -40 20 -94 4 -48
12 -92 18 -98 6 -6 11 -19 11 -29 0 -21 31 -90 45 -100 6 -5 3 -8 -7 -8 -19 0
-49 -40 -88 -115 -15 -29 -43 -73 -62 -97 -49 -62 -62 -92 -55 -132 7 -44 -1
-76 -20 -76 -8 0 -13 -8 -12 -17 2 -18 -10 -54 -21 -63 -3 -3 -16 -22 -29 -42
-12 -21 -27 -38 -31 -38 -5 0 -20 -23 -34 -50 -14 -28 -23 -50 -20 -50 3 0 -4
-13 -15 -29 -11 -15 -18 -31 -14 -35 3 -3 1 -6 -5 -6 -11 0 -28 -58 -19 -66 3
-3 17 12 31 33 14 20 26 32 26 25 0 -22 27 -12 40 16 21 42 39 114 32 131 -4
10 -1 13 11 8 13 -5 17 -1 17 16 0 18 -2 19 -10 7 -5 -8 -10 -12 -10 -8 0 4
23 43 50 86 28 43 50 84 50 90 0 7 3 12 8 12 4 0 13 15 21 33 8 17 18 34 22
37 4 3 35 59 68 124 34 66 67 126 72 133 6 7 12 35 12 63 1 53 9 60 38 34 41
-37 50 31 11 81 -12 16 -20 31 -17 34 4 3 10 -1 15 -9 6 -8 10 -11 10 -6 0 6
-10 20 -22 33 -26 28 -19 40 14 22 12 -7 29 -12 36 -11 6 2 12 -4 12 -12 0 -7
35 -36 78 -62 42 -27 83 -53 90 -59 37 -29 75 -74 93 -107 18 -36 39 -50 39
-28 0 6 -4 10 -8 10 -4 0 -8 8 -8 18 0 27 29 20 64 -16 32 -32 52 -41 52 -22
0 6 17 -7 38 -29 28 -30 43 -38 64 -36 17 2 27 -1 25 -8 -1 -7 10 -12 24 -12
15 0 36 -8 46 -17 11 -10 23 -18 27 -18 4 0 22 -11 39 -24 18 -14 34 -25 37
-25 34 0 85 -44 77 -66 -6 -13 -10 -13 -27 -3 -17 11 -22 11 -29 0 -6 -10 -16
-4 -40 23 -32 37 -56 44 -27 8 8 -10 35 -43 60 -73 24 -30 42 -58 39 -63 -3
-5 -26 11 -52 36 -101 98 -128 120 -171 142 -25 13 -55 32 -67 44 -14 13 -23
16 -25 9 -3 -7 20 -29 50 -49 80 -55 283 -229 277 -238 -2 -5 3 -15 12 -22 15
-12 16 -12 10 4 -6 16 -4 16 21 -3 24 -19 27 -20 30 -5 2 9 -3 24 -11 33 -25
30 -28 40 -9 38 12 -1 18 8 20 26 3 22 0 27 -12 22 -9 -3 -16 -1 -16 6 0 6 -4
8 -10 5 -5 -3 -10 0 -10 8 0 16 27 30 41 21 5 -3 9 1 9 8 0 8 -20 34 -45 58
-25 24 -45 52 -45 62 0 17 -15 22 -53 19 -22 -3 -50 25 -41 41 5 10 4 10 -6 1
-7 -7 -19 -8 -29 -4 -9 5 -34 18 -56 29 -22 11 -51 23 -65 27 -33 10 -99 53
-132 86 -14 15 -29 25 -32 21 -3 -3 -6 2 -6 11 0 9 -5 19 -12 23 -7 4 -8 3 -4
-4 5 -8 -1 -12 -18 -12 -16 0 -41 16 -70 45 -25 24 -65 54 -88 66 -24 12 -49
30 -56 40 -7 11 -24 19 -37 19 -13 0 -37 11 -53 25 -17 14 -35 25 -40 25 -54
0 -107 73 -98 133 6 33 4 38 -9 33 -13 -4 -14 -2 -5 14 11 21 4 50 -13 50 -6
0 -7 -3 -4 -7z m60 -278 c4 -8 2 -17 -3 -20 -6 -4 -10 3 -10 14 0 25 6 27 13
6z m-59 -307 c-9 -18 -26 -46 -36 -61 -11 -16 -31 -49 -45 -75 -13 -26 -31
-54 -40 -62 -14 -13 -14 -12 -8 10 4 14 16 32 27 42 10 9 22 32 25 51 3 23 12
37 25 40 10 3 26 24 36 46 9 22 20 41 25 41 4 0 0 -15 -9 -32z m952 -211 c10
4 12 0 8 -11 -4 -10 -13 -15 -20 -12 -9 3 -11 -1 -7 -12 4 -13 2 -13 -10 3
-16 21 -12 54 6 36 5 -5 16 -7 23 -4z"/>
<path d="M3451 1245 c0 -22 7 -49 15 -60 16 -19 16 -19 8 5 -4 14 -11 41 -15
60 l-7 35 -1 -40z"/>
<path d="M2789 1207 c-16 -13 -39 -50 -39 -64 0 -4 5 -1 10 7 7 11 12 12 18 4
5 -9 11 -7 22 4 13 14 12 15 -3 9 -24 -9 -21 8 5 33 23 21 13 27 -13 7z"/>
<path d="M2826 1195 c-11 -8 -15 -15 -9 -15 6 0 16 7 23 15 16 19 11 19 -14 0z"/>
<path d="M2775 1120 c-16 -7 -17 -9 -3 -9 9 -1 20 4 23 9 7 11 7 11 -20 0z"/>
<path d="M2694 1078 l-19 -23 23 19 c12 11 22 21 22 23 0 8 -8 2 -26 -19z"/>
<path d="M180 1041 c0 -12 31 -43 37 -37 6 6 -20 46 -29 46 -5 0 -8 -4 -8 -9z"/>
<path d="M2619 1013 c-56 -61 -93 -113 -134 -188 -21 -38 -43 -74 -49 -80 -13
-11 -65 -77 -121 -150 -20 -27 -69 -85 -109 -129 -79 -87 -93 -106 -76 -106 7
0 50 39 96 88 l84 87 -15 -50 c-18 -60 -18 -55 -2 -55 6 0 13 10 14 23 5 61
21 107 53 154 19 29 38 53 41 53 4 0 -6 -60 -22 -132 -16 -73 -34 -157 -39
-186 -5 -29 -18 -94 -28 -145 -11 -51 -23 -116 -26 -144 -6 -50 -5 -53 15 -53
17 0 20 5 17 24 -3 14 -1 31 3 38 7 10 9 9 9 -3 0 -18 20 -29 51 -29 17 0 24
11 20 33 -1 5 4 7 11 4 7 -2 12 -11 12 -20 -2 -17 48 -33 66 -22 6 4 16 2 23
-3 24 -19 73 -24 87 -7 11 13 8 16 -19 21 -24 5 -29 9 -21 20 18 21 -16 32
-123 40 -58 4 -101 12 -107 19 -13 15 23 187 71 345 30 99 39 148 43 215 1 34
25 98 26 71 0 -21 40 29 40 51 0 12 9 32 20 43 11 11 23 34 27 50 3 16 12 35
19 41 8 6 14 17 14 23 0 7 12 23 26 37 23 22 50 59 41 59 -1 0 -19 -17 -38
-37z m-112 -959 c-3 -3 -12 -4 -19 -1 -8 3 -5 6 6 6 11 1 17 -2 13 -5z"/>
<path d="M3905 1040 c4 -6 11 -8 16 -5 14 9 11 15 -7 15 -8 0 -12 -5 -9 -10z"/>
<path d="M3270 910 c0 -5 5 -10 11 -10 5 0 7 5 4 10 -3 6 -8 10 -11 10 -2 0
-4 -4 -4 -10z"/>
<path d="M3110 861 c0 -17 5 -31 10 -31 6 0 10 -12 10 -27 0 -16 9 -43 20 -61
11 -18 20 -45 20 -60 l-1 -27 -14 25 -15 25 6 -30 c4 -16 11 -31 16 -33 4 -2
8 -10 8 -18 0 -7 6 -11 13 -9 6 2 28 1 47 -3 32 -7 35 -11 37 -47 1 -22 4 -58
7 -79 3 -27 2 -35 -5 -25 -5 7 -9 24 -9 35 0 12 -7 35 -15 50 -14 27 -15 22
-15 -88 0 -72 -4 -118 -10 -118 -5 0 -10 14 -10 31 0 34 -21 37 -26 3 -10 -66
-19 -96 -50 -157 -35 -69 -77 -121 -88 -110 -3 4 -6 2 -6 -4 0 -6 -16 -30 -35
-53 -40 -47 -48 -70 -10 -27 14 16 29 25 35 22 6 -4 7 1 3 11 -4 11 -2 15 4
11 6 -4 13 -20 16 -37 5 -24 12 -30 32 -30 19 0 29 8 39 33 9 19 15 25 15 15
1 -20 16 -24 27 -6 4 7 3 8 -4 4 -7 -4 -12 -1 -12 8 0 8 5 18 10 21 6 3 10 11
10 16 0 6 -4 8 -8 5 -5 -3 1 16 14 42 12 26 25 68 29 94 4 26 13 53 21 59 19
16 18 3 -6 -67 -12 -32 -18 -70 -15 -82 4 -18 2 -22 -7 -16 -7 4 -5 -2 5 -13
17 -20 17 -22 0 -59 -10 -22 -22 -42 -28 -46 -6 -5 -3 -8 6 -8 9 0 19 7 23 15
3 9 12 12 21 8 11 -4 16 -1 15 8 -4 27 0 38 19 44 20 6 70 110 76 157 2 15 9
36 14 47 6 11 10 46 10 78 -1 32 -4 47 -6 33 -3 -14 -9 -29 -13 -35 -5 -5 -15
-37 -24 -71 -9 -33 -25 -82 -36 -107 -22 -50 -36 -65 -19 -20 5 14 7 33 5 40
-3 8 -1 11 4 8 6 -3 10 5 10 18 0 14 7 42 16 63 13 32 15 60 9 161 -7 127 -2
146 29 101 9 -12 17 -43 17 -68 2 -43 2 -43 9 15 6 45 4 70 -7 100 -8 22 -15
51 -14 65 1 34 -8 70 -17 70 -31 -1 -52 -70 -29 -98 5 -7 7 -15 4 -19 -4 -3
-2 -12 4 -20 9 -9 8 -13 0 -13 -6 0 -12 5 -12 10 -1 6 -2 13 -4 18 -14 51 -18
62 -23 58 -8 -9 -81 102 -104 161 -26 65 -48 80 -48 34z m150 -751 c0 -5 -5
-10 -11 -10 -5 0 -7 5 -4 10 3 6 8 10 11 10 2 0 4 -4 4 -10z"/>
<path d="M2850 815 c-11 -13 -10 -14 4 -9 9 3 16 10 16 15 0 13 -6 11 -20 -6z"/>
<path d="M180 784 c0 -8 5 -12 10 -9 6 3 10 10 10 16 0 5 -4 9 -10 9 -5 0 -10
-7 -10 -16z"/>
<path d="M3480 790 c0 -5 5 -10 11 -10 5 0 7 5 4 10 -3 6 -8 10 -11 10 -2 0
-4 -4 -4 -10z"/>
<path d="M1015 728 c-48 -17 -125 -71 -190 -132 -33 -31 -61 -56 -63 -56 -2 0
-9 -6 -15 -13 -85 -92 -118 -129 -147 -167 -52 -66 -105 -120 -118 -120 -7 0
-12 -4 -12 -10 0 -6 11 -5 28 2 30 12 91 75 153 154 44 58 146 149 165 149 7
0 19 6 26 14 11 12 10 13 -5 8 -15 -6 -16 -4 -7 13 6 11 15 20 21 20 5 0 30
19 55 42 26 24 72 57 103 75 57 33 59 40 6 21z"/>
<path d="M250 723 c-30 -12 -54 -63 -30 -63 13 0 50 37 50 51 0 5 5 7 12 3 7
-4 8 -3 4 4 -8 13 -13 14 -36 5z"/>
<path d="M3660 723 c0 -6 6 -18 14 -25 7 -8 17 -24 20 -36 4 -12 10 -22 14
-23 34 -3 57 -12 64 -22 6 -9 10 -8 18 3 7 11 5 16 -6 18 -9 2 -14 9 -11 15 2
7 -5 20 -15 30 -17 16 -18 16 -18 0 -1 -17 -1 -17 -11 0 -6 9 -15 15 -20 11
-5 -3 -18 5 -29 18 -11 13 -19 18 -20 11z"/>
<path d="M2724 657 c-14 -17 -25 -47 -16 -47 4 0 16 14 25 30 18 30 12 41 -9
17z"/>
<path d="M3187 580 c6 -22 23 -38 23 -21 0 17 -12 41 -20 41 -5 0 -6 -9 -3
-20z"/>
<path d="M3620 555 c14 -16 40 -20 40 -6 0 9 -24 21 -42 21 -6 0 -6 -6 2 -15z"/>
<path d="M1780 546 c0 -2 7 -7 16 -10 8 -3 12 -2 9 4 -6 10 -25 14 -25 6z"/>
<path d="M1947 543 c-10 -10 -8 -23 4 -23 5 0 8 4 5 9 -4 5 0 12 6 14 7 3 8 6
2 6 -6 1 -14 -2 -17 -6z"/>
<path d="M3705 535 c17 -7 32 -11 35 -9 7 8 -24 24 -45 23 -15 0 -13 -4 10
-14z"/>
<path d="M1770 513 c21 -9 39 -34 41 -58 1 -18 2 -18 6 -2 6 24 -23 67 -45 66
-14 0 -14 -2 -2 -6z"/>
<path d="M3758 490 c12 -31 71 -110 83 -110 15 0 6 22 -33 74 -36 49 -62 67
-50 36z"/>
<path d="M1330 419 c0 -5 5 -7 10 -4 6 3 10 8 10 11 0 2 -4 4 -10 4 -5 0 -10
-5 -10 -11z"/>
<path d="M1908 423 c6 -2 18 -2 25 0 6 3 1 5 -13 5 -14 0 -19 -2 -12 -5z"/>
<path d="M1032 340 c0 -14 2 -19 5 -12 2 6 2 18 0 25 -3 6 -5 1 -5 -13z"/>
<path d="M463 335 c-18 -7 -51 -31 -75 -53 -24 -21 -73 -52 -109 -69 -52 -24
-72 -40 -97 -78 -18 -27 -32 -53 -33 -59 0 -6 -2 -26 -3 -43 -4 -35 17 -47 28
-17 3 8 10 12 16 9 5 -3 7 0 4 9 -3 8 1 25 10 38 19 26 21 42 4 32 -6 -4 -3 4
8 18 18 24 38 36 121 68 19 7 38 24 45 40 7 16 16 26 20 24 5 -3 7 0 6 8 -2 8
6 12 22 10 18 -1 21 1 11 7 -10 7 -5 13 23 26 20 9 43 15 51 12 8 -4 18 0 22
7 5 7 15 16 23 19 8 3 -3 6 -25 6 -22 0 -54 -6 -72 -14z"/>
<path d="M1770 335 c-14 -16 -3 -20 19 -6 8 5 9 11 3 15 -5 3 -15 -1 -22 -9z"/>
<path d="M2057 273 c-16 -30 -26 -57 -24 -60 4 -4 67 101 67 112 0 19 -19 -4
-43 -52z"/>
<path d="M3879 204 c-28 -7 -54 -16 -58 -20 -3 -5 -31 -22 -61 -38 -30 -17
-74 -49 -97 -73 -23 -24 -46 -43 -51 -43 -5 0 -9 -7 -9 -15 0 -8 7 -15 16 -15
24 0 44 16 37 29 -7 10 15 41 28 41 3 0 16 10 30 23 14 13 44 30 68 37 24 8
52 20 63 27 25 17 43 16 61 -1 7 -8 19 -17 26 -20 10 -4 9 -7 -2 -15 -9 -5
-27 -20 -41 -33 -14 -13 -40 -36 -58 -51 -18 -16 -30 -31 -27 -34 3 -4 14 1
24 10 10 10 25 17 33 17 12 0 11 -2 -1 -10 -8 -5 -11 -10 -7 -10 4 0 18 7 32
16 19 12 27 13 43 3 16 -10 24 -9 45 7 25 18 26 24 27 101 l0 82 -35 -2 c-19
-1 -58 -7 -86 -13z"/>
<path d="M3093 184 c-6 -13 -7 -24 -3 -24 9 0 25 39 18 45 -2 2 -8 -7 -15 -21z"/>
<path d="M2648 95 c-15 -25 -23 -45 -18 -45 6 0 10 4 10 8 0 5 9 19 20 32 17
19 27 50 17 50 -1 0 -14 -20 -29 -45z"/>
<path d="M1910 69 c-50 -57 -55 -69 -30 -69 11 0 23 8 27 17 3 10 22 35 41 56
30 31 33 37 17 36 -11 0 -36 -18 -55 -40z"/>
<path d="M3181 103 c-1 -6 -4 -19 -7 -28 -6 -15 -4 -15 15 -4 11 8 21 17 21
22 0 4 -4 6 -9 3 -5 -4 -12 0 -14 6 -4 9 -6 9 -6 1z"/>
<path d="M2905 40 c-3 -5 -1 -10 4 -10 6 0 11 5 11 10 0 6 -2 10 -4 10 -3 0
-8 -4 -11 -10z"/>
</g>
</svg>
